<svg xmlns="http://www.w3.org/2000/svg" xmlns:xlink="http://www.w3.org/1999/xlink" version="1.1" width="256" height="256" viewBox="0 0 256 256" xml:space="preserve">

<defs>
</defs>
<g style="stroke: none; stroke-width: 0; stroke-dasharray: none; stroke-linecap: butt; stroke-linejoin: miter; stroke-miterlimit: 10; fill: none; fill-rule: nonzero; opacity: 1;" transform="translate(1.4065934065934016 1.4065934065934016) scale(2.81 2.81)" >
	<path d="M 81.563 60.827 H 8.437 c -0.552 0 -1 -0.447 -1 -1 V 7.964 c 0 -0.552 0.448 -1 1 -1 h 73.126 c 0.553 0 1 0.448 1 1 v 51.863 C 82.563 60.38 82.116 60.827 81.563 60.827 z M 9.437 58.827 h 71.126 V 8.964 H 9.437 V 58.827 z" style="stroke: none; stroke-width: 1; stroke-dasharray: none; stroke-linecap: butt; stroke-linejoin: miter; stroke-miterlimit: 10; fill: rgb(0,0,0); fill-rule: nonzero; opacity: 1;" transform=" matrix(1 0 0 1 0 0) " stroke-linecap="round" />
	<path d="M 84.112 66.791 H 5.889 c -0.552 0 -1 -0.447 -1 -1 v -5.964 c 0 -0.553 0.448 -1 1 -1 h 78.223 c 0.553 0 1 0.447 1 1 v 5.964 C 85.112 66.344 84.665 66.791 84.112 66.791 z M 6.889 64.791 h 76.223 v -3.964 H 6.889 V 64.791 z" style="stroke: none; stroke-width: 1; stroke-dasharray: none; stroke-linecap: butt; stroke-linejoin: miter; stroke-miterlimit: 10; fill: rgb(0,0,0); fill-rule: nonzero; opacity: 1;" transform=" matrix(1 0 0 1 0 0) " stroke-linecap="round" />
	<path d="M 17.794 90 c -0.69 0 -1.372 -0.181 -1.985 -0.535 c -0.92 -0.532 -1.58 -1.391 -1.855 -2.418 c -0.275 -1.027 -0.134 -2.101 0.397 -3.021 l 10.817 -18.735 c 0.179 -0.31 0.509 -0.5 0.866 -0.5 h 6.887 c 0.357 0 0.687 0.19 0.866 0.5 c 0.178 0.31 0.178 0.69 0 1 L 21.249 88.008 c -0.532 0.921 -1.391 1.58 -2.418 1.855 C 18.488 89.956 18.14 90 17.794 90 z M 26.612 66.791 L 16.084 85.026 c -0.265 0.458 -0.335 0.992 -0.198 1.504 c 0.137 0.512 0.465 0.938 0.923 1.203 c 0.458 0.265 0.992 0.335 1.504 0.198 s 0.939 -0.465 1.204 -0.923 L 31.19 66.791 H 26.612 z" style="stroke: none; stroke-width: 1; stroke-dasharray: none; stroke-linecap: butt; stroke-linejoin: miter; stroke-miterlimit: 10; fill: rgb(0,0,0); fill-rule: nonzero; opacity: 1;" transform=" matrix(1 0 0 1 0 0) " stroke-linecap="round" />
	<path d="M 47.982 8.964 h -5.964 c -0.552 0 -1 -0.448 -1 -1 V 3.982 C 41.018 1.787 42.804 0 45 0 c 2.196 0 3.982 1.786 3.982 3.982 v 3.982 C 48.982 8.517 48.535 8.964 47.982 8.964 z M 43.018 6.964 h 3.964 V 3.982 C 46.982 2.89 46.093 2 45 2 s -1.982 0.889 -1.982 1.982 V 6.964 z" style="stroke: none; stroke-width: 1; stroke-dasharray: none; stroke-linecap: butt; stroke-linejoin: miter; stroke-miterlimit: 10; fill: rgb(0,0,0); fill-rule: nonzero; opacity: 1;" transform=" matrix(1 0 0 1 0 0) " stroke-linecap="round" />
	<path d="M 72.206 90 c -0.346 0 -0.693 -0.045 -1.037 -0.137 c -1.027 -0.275 -1.886 -0.935 -2.418 -1.855 L 56.213 66.291 c -0.179 -0.31 -0.179 -0.69 0 -1 c 0.179 -0.31 0.509 -0.5 0.866 -0.5 h 6.887 c 0.357 0 0.687 0.19 0.866 0.5 l 10.816 18.735 c 0.532 0.921 0.674 1.993 0.398 3.021 c -0.275 1.027 -0.935 1.886 -1.855 2.418 C 73.578 89.82 72.896 90 72.206 90 z M 58.811 66.791 l 11.672 20.218 c 0.265 0.458 0.691 0.786 1.203 0.923 c 0.512 0.139 1.045 0.068 1.505 -0.198 c 0.458 -0.265 0.786 -0.691 0.923 -1.203 c 0.138 -0.512 0.067 -1.045 -0.198 -1.504 L 63.388 66.791 H 58.811 z" style="stroke: none; stroke-width: 1; stroke-dasharray: none; stroke-linecap: butt; stroke-linejoin: miter; stroke-miterlimit: 10; fill: rgb(0,0,0); fill-rule: nonzero; opacity: 1;" transform=" matrix(1 0 0 1 0 0) " stroke-linecap="round" />
</g>
</svg>